<?xml version="1.0" encoding="UTF-8" standalone="no"?>
<svg width="16px" height="18px" viewBox="0 0 16 18" version="1.1" xmlns="http://www.w3.org/2000/svg" xmlns:xlink="http://www.w3.org/1999/xlink">
    <!-- Generator: Sketch 39.1 (31720) - http://www.bohemiancoding.com/sketch -->
    <title>power button 1</title>
    <desc>Created with Sketch.</desc>
    <defs></defs>
    <g id="Symbols" stroke="none" stroke-width="1" fill="none" fill-rule="evenodd">
        <g id="Top-nav" transform="translate(-1118.000000, -31.000000)">
            <g id="power-button-1">
                <g transform="translate(1114.000000, 28.000000)">
                    <g id="Group">
                        <g id="Frame_-_24px">
                            <rect id="Rectangle-path" x="0" y="0" width="24" height="24"></rect>
                        </g>
                        <g id="Line_Icons" transform="translate(4.000000, 3.000000)" fill="#525865">
                            <g id="Group">
                                <path d="M11,2.589 L11,4.812 C12.791,5.852 14,7.786 14,10 C14,13.309 11.309,16 8,16 C4.691,16 2,13.309 2,10 C2,7.785 3.209,5.852 5,4.812 L5,2.589 C2.072,3.779 0,6.65 0,10 C0,14.411 3.589,18 8,18 C12.411,18 16,14.411 16,10 C16,6.65 13.928,3.779 11,2.589 L11,2.589 Z" id="Shape"></path>
                                <rect id="Rectangle-path" x="7" y="0" width="2" height="8"></rect>
                            </g>
                        </g>
                    </g>
                </g>
            </g>
        </g>
    </g>
</svg>