<?xml version="1.0" encoding="UTF-8" standalone="no"?>
<svg width="20px" height="16px" viewBox="0 0 20 16" version="1.1" xmlns="http://www.w3.org/2000/svg" xmlns:xlink="http://www.w3.org/1999/xlink">
    <!-- Generator: Sketch 39.1 (31720) - http://www.bohemiancoding.com/sketch -->
    <title>move left right 1</title>
    <desc>Created with Sketch.</desc>
    <defs></defs>
    <g id="Symbols" stroke="none" stroke-width="1" fill="none" fill-rule="evenodd">
        <g id="Top-nav" transform="translate(-990.000000, -31.000000)">
            <g id="move-left-right-1">
                <g transform="translate(988.000000, 27.000000)">
                    <g id="Group">
                        <g id="Frame_-_24px">
                            <rect id="Rectangle-path" x="0" y="0.004" width="24" height="24"></rect>
                        </g>
                        <g id="Line_Icons" transform="translate(2.000000, 4.000000)" fill="#525865">
                            <g id="Group">
                                <path d="M4,7 L19,7 C19.404,7 19.77,6.756 19.924,6.383 C20.078,6.009 19.993,5.579 19.707,5.293 L14.707,0.293 L13.293,1.707 L16.586,5 L4,5 L4,7 L4,7 Z" id="Shape"></path>
                                <path d="M16,9 L1,9 C0.596,9 0.23,9.244 0.076,9.617 C-0.078,9.991 0.007,10.421 0.293,10.707 L5.293,15.707 L6.707,14.293 L3.414,11 L16,11 L16,9 L16,9 Z" id="Shape"></path>
                            </g>
                        </g>
                    </g>
                </g>
            </g>
        </g>
    </g>
</svg>